<svg viewBox="0 0 96 96" xmlns="http://www.w3.org/2000/svg" fill-rule="evenodd" clip-rule="evenodd" stroke-linejoin="round" stroke-miterlimit="1.414"><g transform="scale(.35294 .28235)"><path fill="none" d="M0 0h272v340H0z"/><clipPath id="a"><path d="M0 0h272v340H0z"/></clipPath><g clip-path="url(#a)"><path d="M38.134 52.048c3.11-4.037 6.406-7.912 9.882-11.602 7.092 6.69 14.184 9.02 18.598 5.157 4.412-3.86 5.086-12.988 2.482-23.61 4.063-2.89 8.206-5.492 12.41-7.81 4.112-2.24 8.342-4.242 12.685-5.99 1.35 2.87 2.82 5.38 4.37 7.443.23.305.45.6.68.882l.25.298c.1.12.2.234.3.35 3.26 3.794 6.76 5.593 10.03 4.69 3.27-.907 5.83-4.378 7.5-9.535.37-1.13.7-2.34.98-3.63.29-1.33.53-2.73.72-4.2.14-1.05.25-2.13.34-3.25C124 .52 128.62.09 133.22-.03c4.48-.1 9.003.07 13.55.53C148 11.51 151.696 19.42 157 20.59c5.304 1.17 10.945-4.68 15.113-14.5 4.506 1.55 8.906 3.38 13.19 5.45 4.176 2.05 8.3 4.37 12.36 6.97-2.234 10.76-1.24 19.84 3.303 23.45 4.54 3.62 11.544.91 18.4-6.17 3.69 3.59 7.2 7.38 10.52 11.35 3.23 3.89 6.33 8.01 9.28 12.36-5.352 8.87-7.213 17.73-4.125 23.25 3.09 5.52 10.39 6.36 18.89 3.1 2.31 5.08 4.39 10.26 6.25 15.52.85 2.42 1.65 4.87 2.41 7.35.85 2.77 1.64 5.58 2.38 8.43l.02.08c-5.69 4.18-9.6 9.29-10.76 14.338-.4 1.74-.47 3.478-.17 5.164.51 2.844 2.01 5.26 4.27 7.17.86.725 1.84 1.38 2.9 1.96.83.44 1.7.84 2.63 1.19 1.53.573 3.19 1.02 4.96 1.33.57.1 1.16.18 1.75.25.58 5.8.92 11.58 1.02 17.328.09 5.6-.05 11.253-.42 16.94-8.8 1.535-15.14 6.156-16.07 12.786-.94 6.63 3.75 13.684 11.6 18.894-1.24 5.634-2.7 11.135-4.36 16.49-1.64 5.22-3.49 10.37-5.58 15.45-8.6-2.79-15.86-1.548-18.76 4.13-2.89 5.676-.72 14.43 4.93 23-2.87 4.613-5.9 9-9.07 13.152-3.11 4.034-6.41 7.91-9.88 11.6-7.09-6.69-14.18-9.02-18.59-5.16-4.41 3.864-5.09 12.99-2.48 23.612-4.06 2.89-8.2 5.49-12.41 7.805-3.15 1.72-6.37 3.3-9.65 4.73-1 .43-2.01.86-3.02 1.27-4.5-9.58-10.34-15.12-15.6-13.67-1.07.3-2.06.87-2.97 1.68l-.21.19-.2.19c-.2.2-.4.42-.6.65-.78.92-1.49 2.04-2.12 3.33l-.15.32-.09.2c-.23.5-.44 1.01-.64 1.54-1.29 3.4-2.15 7.67-2.52 12.51-4.64.73-9.27 1.15-13.86 1.28-4.48.1-9.01-.07-13.55-.53-1.23-11-4.93-18.92-10.24-20.09-5.3-1.17-10.94 4.69-15.11 14.5-4.51-1.55-8.91-3.37-13.19-5.45-4.17-2.05-8.3-4.37-12.36-6.98 2.24-10.75 1.24-19.84-3.3-23.45-4.54-3.62-11.54-.91-18.4 6.16-3.69-3.58-7.2-7.37-10.52-11.34-3.23-3.89-6.33-8.01-9.28-12.36 5.35-8.87 7.22-17.73 4.13-23.25s-10.39-6.36-18.88-3.11c-2.31-5.08-4.39-10.25-6.24-15.51-.78-2.23-1.52-4.48-2.22-6.76l-.32-1.05-.18-.59c-.74-2.46-1.43-4.94-2.07-7.45 7.66-5.63 12.09-12.93 10.93-19.51-.81-4.53-4.14-7.97-9.03-10.02-2.21-.92-4.72-1.56-7.47-1.89l-.09-.92c-.07-.75-.14-1.49-.2-2.24-.07-.78-.13-1.56-.19-2.34l-.13-1.86c-.08-1.15-.14-2.3-.2-3.45-.11-2.18-.18-4.35-.22-6.51-.09-5.61.05-11.26.42-16.94 8.81-1.54 15.13-6.16 16.07-12.79.93-6.63-3.75-13.68-11.6-18.89 1.24-5.64 2.7-11.14 4.36-16.49 1.64-5.22 3.5-10.38 5.58-15.45 8.61 2.79 15.87 1.55 18.76-4.13 2.9-5.68.73-14.44-4.93-23 2.87-4.62 5.91-9.01 9.08-13.16zm35.453 6.928c-5.613 4.944-10.89 10.604-15.745 16.95-4.86 6.336-9.154 13.175-12.86 20.4l-.156.3-.074.147-.07.14-.153.306c-3.68 7.25-6.82 15-9.36 23.19-2.56 8.17-4.43 16.55-5.64 24.99l-.05.35-.03.17-.03.16-.05.35c-1.17 8.45-1.7 17.12-1.54 25.9.14 8.77.98 17.4 2.44 25.79l.06.35.03.16.03.16.06.36c1.51 8.37 3.67 16.63 6.5 24.66 2.82 8.04 6.23 15.61 10.15 22.66l.16.29.08.14.07.14.16.29c3.95 7.01 8.48 13.61 13.56 19.68 5.07 6.07 10.54 11.44 16.32 16.07l.24.2.12.09.11.09.24.19c5.8 4.59 12 8.52 18.55 11.69 6.54 3.19 13.24 5.53 19.99 7.04l.28.07.14.03.13.03.28.06c1.6.34 3.22.65 4.84.9 5.22.82 10.53 1.17 15.88 1.02 7.02-.18 13.92-1.22 20.63-3.05l.28-.08.13-.04.13-.04.28-.08c6.7-1.89 13.31-4.59 19.73-8.13l.35-.19.61-.34c.41-.23.81-.46 1.21-.69 1.72-1 3.42-2.06 5.08-3.17 3.78-2.51 7.41-5.29 10.88-8.31l.24-.2.11-.1.11-.09.23-.21c5.61-4.95 10.89-10.61 15.74-16.95 4.86-6.34 9.15-13.18 12.86-20.4l.16-.3.07-.15.07-.14.15-.31c3.67-7.26 6.81-15.01 9.35-23.19 2.55-8.19 4.42-16.56 5.63-25l.05-.36.02-.17.02-.17.04-.35c1.17-8.46 1.71-17.13 1.55-25.9-.15-8.78-.98-17.41-2.44-25.8l-.06-.35-.03-.17-.02-.16-.07-.35c-1.51-8.37-3.67-16.63-6.5-24.67-2.83-8.03-6.24-15.61-10.16-22.65l-.17-.3-.08-.14-.08-.14-.17-.29c-3.96-7.02-8.49-13.62-13.56-19.68-5.07-6.08-10.54-11.44-16.32-16.08l-.24-.2-.12-.09-.11-.09-.24-.19c-5.8-4.59-12.01-8.52-18.55-11.69-6.55-3.19-13.25-5.54-20-7.05l-.29-.07-.14-.03-.13-.03-.29-.05c-6.77-1.47-13.7-2.13-20.72-1.93-7.03.18-13.93 1.23-20.64 3.06l-.28.07-.14.04-.13.04-.28.08c-6.7 1.88-13.31 4.59-19.73 8.13-6.43 3.53-12.49 7.79-18.13 12.69l-.23.21-.11.1-.11.09-.24.21zm.2 4.154c2.815-2.564 5.753-4.972 8.81-7.21 4.706 6.314 9.88 9.293 13.67 7.083 3.792-2.21 5.297-9.08 4.45-17.645 3.42-1.526 6.87-2.82 10.335-3.882 3.386-1.02 6.84-1.838 10.35-2.447.723 2.42 1.58 4.59 2.534 6.43.138.27.28.53.425.79l.16.27.19.32c2.08 3.44 4.56 5.41 7.16 5.27 2.6-.14 4.93-2.37 6.76-6.03.41-.81.79-1.68 1.14-2.62.37-.97.7-2 1.01-3.09.22-.79.42-1.6.61-2.44 3.63.22 7.21.68 10.74 1.36 3.44.67 6.88 1.57 10.31 2.69-.24 8.62 1.73 15.3 5.66 17.09 3.93 1.79 8.88-1.74 13.13-8.55 3.29 1.94 6.45 4.08 9.51 6.39 2.97 2.27 5.88 4.74 8.7 7.42-2.86 7.84-3.08 14.96 0 18.49 3.09 3.53 8.74 2.64 14.74-1.62 2.44 3.37 4.71 6.86 6.83 10.46 2.05 3.52 3.98 7.19 5.77 11.01-5.05 5.88-7.43 12.35-5.66 17.08 1.77 4.74 7.26 6.62 14.12 5.56 1.22 4.28 2.25 8.59 3.1 12.92.39 1.99.73 4 1.05 6.03.35 2.26.65 4.55.91 6.85l.01.05c-4.81 2.24-8.35 5.49-9.78 9.16-.49 1.26-.73 2.58-.68 3.92.08 2.26.97 4.36 2.49 6.2.58.7 1.26 1.37 2.01 1.99.58.47 1.21.93 1.88 1.35 1.11.69 2.33 1.31 3.65 1.84.43.18.86.34 1.31.5-.18 4.53-.55 9.01-1.09 13.42-.54 4.3-1.25 8.6-2.15 12.89-6.9-.31-12.24 2.16-13.67 7.08-1.43 4.91 1.39 11.09 6.84 16.4-1.56 4.1-3.26 8.07-5.11 11.88-1.82 3.71-3.79 7.34-5.93 10.87-6.28-3.59-11.97-3.86-14.8-.01-2.83 3.86-2.11 10.92 1.29 18.43-2.69 3.04-5.48 5.89-8.36 8.53-2.82 2.56-5.75 4.97-8.81 7.21-4.7-6.32-9.88-9.29-13.67-7.08-3.79 2.21-5.29 9.08-4.45 17.65-3.42 1.52-6.87 2.81-10.34 3.87-2.59.78-5.22 1.45-7.89 1.98-.81.17-1.63.32-2.45.46-2.41-8.09-6.28-13.31-10.46-13.08-.84.04-1.67.31-2.45.78l-.18.11-.18.12c-.17.12-.35.26-.52.4-.7.57-1.36 1.31-1.98 2.19l-.15.22-.09.14c-.22.33-.44.69-.65 1.06-1.35 2.38-2.47 5.5-3.28 9.14-3.63-.22-7.21-.68-10.74-1.36-3.44-.67-6.88-1.57-10.31-2.69.25-8.63-1.73-15.31-5.66-17.09-3.93-1.79-8.88 1.74-13.12 8.54-3.28-1.95-6.45-4.08-9.5-6.4-2.97-2.27-5.88-4.74-8.71-7.41 2.87-7.85 3.09-14.96.01-18.5-3.09-3.53-8.74-2.64-14.74 1.62-2.44-3.37-4.72-6.86-6.83-10.45-2.05-3.52-3.98-7.2-5.77-11.02 5.05-5.88 7.43-12.35 5.67-17.09-1.77-4.74-7.27-6.62-14.12-5.56-1.22-4.27-2.25-8.59-3.1-12.92-.35-1.83-.68-3.69-.97-5.55-.04-.29-.09-.57-.13-.86l-.07-.48c-.29-2-.56-4.02-.78-6.05 6.47-3.02 10.65-7.85 10.47-13.08-.13-3.6-2.31-6.79-5.83-9.19-1.59-1.08-3.44-1.99-5.51-2.71l.03-.72.09-1.75c.03-.6.07-1.21.11-1.82.03-.48.06-.96.1-1.44.07-.89.14-1.78.22-2.67.15-1.68.34-3.36.54-5.02.54-4.3 1.26-8.6 2.15-12.89 6.9.31 12.24-2.16 13.67-7.08 1.43-4.91-1.39-11.1-6.84-16.4 1.56-4.11 3.26-8.07 5.11-11.89 1.82-3.71 3.8-7.35 5.94-10.88 6.28 3.59 11.97 3.86 14.8.01 2.83-3.86 2.11-10.92-1.29-18.43 2.7-3.05 5.49-5.89 8.37-8.53zm26.374 11.277c-4.82 2.837-9.47 6.276-13.87 10.313-4.4 4.027-8.42 8.536-12.04 13.437l-.15.206-.07.095-.07.1-.15.205c-3.59 4.93-6.83 10.33-9.66 16.164-2.83 5.826-5.17 11.918-7.01 18.173l-.08.265-.03.124-.03.12-.07.26c-1.8 6.27-3.15 12.81-3.97 19.55-.83 6.74-1.12 13.48-.91 20.14l.01.28.01.13.01.13.01.28c.25 6.65 1.02 13.34 2.32 19.96 1.3 6.62 3.09 12.99 5.33 19.04l.09.25.05.12.04.12.1.25c2.27 6.04 5.02 11.84 8.25 17.34 3.22 5.5 6.83 10.53 10.75 15.05l.16.19.08.08.08.09.17.19c3.94 4.49 8.27 8.54 12.93 12.07 4.66 3.54 9.54 6.46 14.54 8.76l.21.09.1.04.1.04.21.09c1.19.53 2.39 1.03 3.6 1.51 3.91 1.51 7.93 2.67 12.05 3.46 5.4 1.04 10.79 1.41 16.12 1.14l.23-.01.11-.01.1-.01.23-.01c5.33-.31 10.68-1.26 15.97-2.89l.29-.09.5-.15c.33-.11.67-.22 1-.33 1.43-.48 2.84-1 4.23-1.57 3.17-1.28 6.24-2.8 9.22-4.52l.21-.12.1-.06.1-.06.2-.12c4.83-2.83 9.47-6.27 13.87-10.31 4.4-4.02 8.43-8.53 12.04-13.43l.15-.21.07-.1.08-.1.15-.21c3.59-4.93 6.83-10.33 9.66-16.16s5.17-11.92 7.01-18.18l.08-.26.04-.12.03-.12.08-.27c1.81-6.27 3.15-12.81 3.98-19.55.83-6.74 1.13-13.48.91-20.14l-.01-.28v-.13l-.01-.13-.01-.28c-.25-6.66-1.01-13.34-2.31-19.97-1.29-6.62-3.08-12.99-5.32-19.04l-.09-.26-.05-.12-.04-.12-.1-.25c-2.27-6.03-5.02-11.85-8.25-17.34-3.22-5.5-6.83-10.53-10.75-15.05l-.16-.19-.08-.09-.08-.09-.17-.19c-3.94-4.49-8.26-8.54-12.93-12.07-4.66-3.54-9.53-6.46-14.54-8.76l-.21-.1-.1-.04-.1-.05-.21-.1c-5.02-2.26-10.25-3.94-15.64-4.97-5.39-1.04-10.79-1.41-16.12-1.14l-.22.01h-.21l-.23.02c-5.32.31-10.67 1.27-15.97 2.89-5.3 1.61-10.4 3.85-15.24 6.65l-.21.11-.09.06-.1.05-.2.12zm-6.45 6.35c2.25-1.72 4.59-3.31 7.01-4.756 3.28 5.37 7.07 8.18 10.04 6.83 2.98-1.35 4.43-6.55 4.18-13.29 2.66-.85 5.34-1.52 8.01-2.02 2.61-.47 5.27-.77 7.96-.9.44 1.96.99 3.72 1.63 5.25.1.23.19.44.29.66l.11.23.13.27c1.42 2.89 3.21 4.66 5.19 4.8 1.98.14 3.85-1.36 5.4-4.04.35-.58.67-1.23.99-1.92.32-.71.62-1.49.9-2.3.2-.59.4-1.2.57-1.83 2.74.53 5.44 1.23 8.08 2.09 2.58.87 5.15 1.89 7.69 3.09-.58 6.69.61 12.07 3.51 13.84 2.9 1.77 6.81-.5 10.34-5.38 2.4 1.83 4.71 3.79 6.92 5.89 2.15 2.06 4.24 4.26 6.26 6.61-2.53 5.83-3.02 11.34-.85 14.39 2.18 3.05 6.5 2.89 11.25.16 1.7 2.86 3.26 5.79 4.7 8.79 1.39 2.94 2.69 5.98 3.87 9.13-4.1 4.09-6.2 8.89-5.08 12.75 1.12 3.86 5.2 5.84 10.44 5.68.73 3.45 1.32 6.9 1.76 10.35.2 1.59.38 3.18.52 4.79.16 1.79.29 3.6.37 5.42l.01.04c-3.75 1.28-6.58 3.47-7.83 6.18-.43.93-.68 1.93-.7 2.98-.05 1.77.53 3.49 1.6 5.07.41.61.89 1.19 1.43 1.74.42.43.88.84 1.37 1.24.81.65 1.7 1.25 2.68 1.79.32.18.64.35.97.51-.35 3.51-.83 6.96-1.44 10.33-.61 3.3-1.35 6.57-2.22 9.82-5.22-.9-9.38.5-10.69 4.19-1.31 3.68.55 8.76 4.43 13.42-1.37 3.04-2.84 5.95-4.42 8.74-1.55 2.72-3.21 5.35-4.99 7.89-4.6-3.39-8.9-4.15-11.22-1.43-2.32 2.73-2.1 8.29.14 14.46-2.18 2.11-4.43 4.05-6.73 5.83-2.26 1.73-4.59 3.32-7.01 4.76-3.28-5.36-7.06-8.17-10.04-6.82-2.97 1.35-4.43 6.55-4.18 13.29-2.66.86-5.34 1.53-8.01 2.02-2.01.37-4.03.63-6.08.79-.62.05-1.25.09-1.88.12-1.46-6.52-4.15-10.95-7.33-11.18-.64-.04-1.28.09-1.89.38l-.14.07-.14.08c-.14.08-.28.17-.42.26-.56.38-1.09.89-1.6 1.51l-.12.16-.07.1c-.18.24-.37.5-.55.77-1.13 1.72-2.12 4.04-2.9 6.79-2.74-.52-5.43-1.22-8.08-2.09-2.58-.86-5.14-1.88-7.69-3.08.59-6.69-.61-12.07-3.5-13.84-2.9-1.77-6.81.5-10.34 5.38-2.4-1.83-4.7-3.79-6.91-5.89-2.15-2.05-4.24-4.26-6.26-6.61 2.53-5.83 3.03-11.34.85-14.39-2.18-3.04-6.5-2.89-11.25-.16-1.69-2.85-3.25-5.79-4.69-8.79-1.39-2.93-2.69-5.97-3.87-9.12 4.1-4.09 6.2-8.89 5.08-12.75-1.12-3.86-5.2-5.85-10.44-5.68-.73-3.44-1.31-6.89-1.76-10.35-.18-1.46-.34-2.93-.48-4.41l-.06-.68-.03-.38c-.14-1.58-.24-3.18-.32-4.78 5.04-1.72 8.43-5.08 8.53-9.16.07-2.81-1.43-5.51-3.99-7.7-1.15-.99-2.52-1.88-4.05-2.63l.05-.56c.05-.45.09-.9.15-1.34.06-.47.11-.93.17-1.4.05-.37.1-.74.14-1.11.1-.69.19-1.37.29-2.06.2-1.29.41-2.58.64-3.85.61-3.29 1.35-6.57 2.23-9.81 5.21.9 9.38-.5 10.69-4.19 1.31-3.68-.55-8.77-4.43-13.42 1.37-3.04 2.84-5.96 4.42-8.74 1.55-2.72 3.21-5.35 4.99-7.89 4.6 3.4 8.9 4.16 11.22 1.43 2.32-2.73 2.11-8.29-.13-14.46 2.18-2.11 4.43-4.05 6.73-5.83zm19.47 11.313c-3.79 1.74-7.47 3.97-10.98 6.684-3.52 2.706-6.78 5.826-9.74 9.29l-.12.145-.06.06-.06.07-.12.15c-2.95 3.49-5.65 7.38-8.06 11.64-2.41 4.25-4.46 8.77-6.14 13.46l-.07.19-.03.09-.03.09-.07.2c-1.65 4.7-2.97 9.66-3.91 14.82s-1.47 10.37-1.61 15.57l-.01.22v.42c-.11 5.2.16 10.47.84 15.75.68 5.27 1.74 10.4 3.16 15.32l.06.2.03.1.03.09.06.2c1.45 4.91 3.27 9.69 5.46 14.28s4.69 8.84 7.46 12.74l.12.16.05.08.06.07.12.16c2.78 3.87 5.87 7.44 9.25 10.64 3.37 3.2 6.93 5.94 10.62 8.21l.15.1.08.04.07.05.16.09c.88.53 1.77 1.04 2.66 1.52 2.89 1.55 5.89 2.84 8.97 3.85 4.04 1.33 8.11 2.13 12.16 2.44l.17.01h.16l.17.01c4.05.27 8.15.04 12.24-.71l.23-.04.39-.08c.26-.05.52-.1.78-.16 1.1-.24 2.2-.51 3.28-.81 2.45-.7 4.85-1.58 7.19-2.63l.16-.08.08-.03.08-.04.16-.08c3.79-1.74 7.47-3.97 10.99-6.69 3.53-2.71 6.78-5.83 9.75-9.29l.12-.15.06-.07.06-.07.13-.14c2.95-3.49 5.66-7.38 8.06-11.64 2.42-4.26 4.47-8.77 6.15-13.46l.07-.2.04-.09.03-.1.07-.2c1.66-4.7 2.98-9.66 3.91-14.82.95-5.16 1.48-10.38 1.62-15.58l.01-.22v-.42c.11-5.2-.16-10.48-.84-15.76-.68-5.28-1.75-10.4-3.16-15.32l-.06-.21-.03-.1-.03-.09-.06-.2c-1.45-4.91-3.26-9.7-5.46-14.28-2.19-4.59-4.7-8.85-7.46-12.74l-.12-.17-.06-.07-.06-.08-.11-.17c-2.79-3.87-5.88-7.44-9.25-10.63-3.37-3.21-6.93-5.95-10.62-8.22l-.15-.09-.08-.05-.08-.05-.15-.09c-3.7-2.25-7.59-4.06-11.63-5.38-4.04-1.33-8.11-2.14-12.16-2.44l-.17-.01h-.1l-.08-.01-.17-.01c-4.05-.27-8.15-.05-12.24.71-4.09.74-8.06 1.99-11.85 3.71l-.16.07-.07.03-.08.03-.16.07zm-13.42 14.554c1.6-1.47 3.26-2.852 4.99-4.13 2.73 3.743 5.71 5.536 7.86 4.282 2.15-1.257 2.97-5.256 2.43-10.275 1.95-.85 3.91-1.58 5.88-2.16 1.93-.56 3.9-1 5.9-1.32.43 1.43.93 2.7 1.49 3.79.08.16.17.32.25.47l.09.16.11.19c1.22 2.04 2.65 3.22 4.13 3.16 1.48-.05 2.8-1.33 3.82-3.45.23-.46.44-.97.64-1.52.2-.56.39-1.16.56-1.79.12-.46.23-.93.33-1.42 2.08.17 4.12.47 6.15.91 1.98.43 3.95.99 5.91 1.68-.08 5.04 1.09 8.97 3.35 10.05 2.26 1.09 5.06-.93 7.44-4.86 1.89 1.17 3.71 2.45 5.47 3.83 1.72 1.36 3.39 2.84 5.02 4.43-1.59 4.56-1.67 8.72.12 10.82 1.78 2.09 5.01 1.63 8.41-.8 1.41 1.99 2.74 4.06 3.96 6.18 1.2 2.08 2.32 4.25 3.37 6.5-2.85 3.39-4.17 7.15-3.13 9.94 1.04 2.79 4.19 3.95 8.1 3.4.73 2.52 1.35 5.05 1.86 7.59.24 1.17.45 2.35.64 3.54.22 1.33.41 2.67.56 4.02l.01.04c-2.73 1.27-4.73 3.13-5.52 5.26-.27.74-.4 1.51-.37 2.29.06 1.33.58 2.57 1.46 3.66.34.42.72.81 1.16 1.19.34.29.7.56 1.09.81.64.42 1.34.79 2.09 1.12.25.11.5.21.75.3-.07 2.65-.25 5.26-.53 7.84-.28 2.51-.66 5.02-1.15 7.51-3.94-.25-6.98 1.14-7.77 4-.78 2.86.87 6.51 4.01 9.66-.86 2.39-1.81 4.69-2.85 6.9-1.01 2.16-2.12 4.26-3.32 6.3-3.61-2.16-6.86-2.37-8.45-.15-1.59 2.23-1.13 6.37.86 10.79-1.52 1.76-3.1 3.39-4.72 4.91-1.59 1.47-3.25 2.85-4.98 4.13-2.73-3.74-5.71-5.53-7.86-4.28-2.15 1.25-2.97 5.26-2.43 10.27-1.94.86-3.91 1.58-5.88 2.17-1.48.43-2.97.8-4.5 1.09-.46.09-.93.17-1.4.24-1.43-4.75-3.67-7.84-6.06-7.75-.48.02-.95.17-1.39.44l-.1.06-.1.07c-.1.07-.2.15-.3.23-.39.33-.76.75-1.11 1.26l-.09.13-.05.08c-.13.19-.25.4-.37.62-.76 1.38-1.38 3.2-1.81 5.32-2.07-.17-4.12-.47-6.14-.9-1.97-.43-3.94-.99-5.9-1.67.08-5.04-1.09-8.97-3.34-10.05-2.26-1.08-5.06.93-7.44 4.87-1.89-1.17-3.72-2.45-5.48-3.83-1.71-1.36-3.39-2.83-5.02-4.42 1.59-4.56 1.67-8.72-.12-10.82-1.78-2.09-5.01-1.63-8.41.8-1.41-1.99-2.73-4.06-3.96-6.18-1.2-2.08-2.32-4.25-3.37-6.5 2.85-3.38 4.17-7.14 3.13-9.93s-4.19-3.94-8.1-3.39c-.73-2.51-1.35-5.05-1.86-7.59-.22-1.07-.41-2.16-.59-3.26-.03-.16-.06-.33-.08-.5l-.05-.28c-.18-1.17-.34-2.35-.48-3.54 3.67-1.7 6.03-4.48 5.9-7.54-.1-2.11-1.37-4-3.39-5.43-.92-.64-1.98-1.2-3.17-1.64l.01-.42c.02-.34.03-.68.04-1.02l.05-1.06c.02-.28.03-.56.05-.85.03-.52.07-1.04.11-1.55.08-.99.17-1.96.27-2.93.28-2.51.66-5.02 1.15-7.52 3.95.25 6.98-1.14 7.77-4 .79-2.86-.86-6.51-4.01-9.66.86-2.38 1.82-4.68 2.85-6.89 1.02-2.152 2.12-4.26 3.32-6.3 3.61 2.16 6.87 2.37 8.46.15 1.59-2.23 1.14-6.37-.85-10.79 1.52-1.76 3.09-3.39 4.72-4.91zm15.14 6.86c-2.73 1.61-5.37 3.573-7.85 5.893-2.49 2.308-4.76 4.904-6.79 7.734l-.08.12-.04.06-.04.06-.08.12c-2.02 2.85-3.83 5.98-5.41 9.36-1.58 3.38-2.88 6.92-3.88 10.56l-.04.15-.02.07-.02.08-.04.15c-.99 3.65-1.71 7.46-2.14 11.4-.43 3.93-.56 7.88-.39 11.77l.01.17.01.08.01.08.01.17c.19 3.9.67 7.82 1.46 11.7.78 3.89 1.85 7.63 3.17 11.19l.05.16.03.07.03.07.06.15c1.33 3.55 2.94 6.98 4.82 10.22 1.88 3.26 3.97 6.23 6.24 8.91l.09.12.05.05.05.06.1.11c2.28 2.67 4.78 5.08 7.47 7.2 2.69 2.11 5.49 3.87 8.36 5.27l.13.06.05.02.06.03.13.06c.68.33 1.37.63 2.07.92 2.24.93 4.55 1.64 6.9 2.15 3.09.67 6.18.94 9.22.83h.37c3.04-.13 6.09-.63 9.11-1.53l.17-.05.28-.08.57-.18c.81-.26 1.61-.55 2.41-.87 1.79-.72 3.54-1.57 5.23-2.55l.12-.07.05-.03.06-.04.12-.06c2.74-1.61 5.38-3.57 7.86-5.89 2.49-2.31 4.76-4.9 6.79-7.73l.09-.12.04-.06.04-.05.09-.12c2.02-2.85 3.84-5.97 5.42-9.36 1.58-3.38 2.87-6.92 3.886-10.56l.05-.15.02-.07.02-.07.04-.15c.99-3.65 1.71-7.46 2.14-11.4.43-3.93.56-7.87.39-11.77l-.01-.16-.01-.07v-.08l-.01-.17c-.19-3.9-.67-7.82-1.45-11.7-.78-3.89-1.85-7.63-3.17-11.19l-.06-.15-.03-.07-.02-.07-.06-.15c-1.332-3.55-2.942-6.98-4.82-10.22-1.88-3.25-3.97-6.23-6.24-8.91l-.09-.11-.04-.05-.04-.05-.1-.11c-2.28-2.66-4.78-5.08-7.47-7.19-2.68-2.12-5.49-3.88-8.36-5.27l-.12-.06-.06-.03-.06-.03-.12-.06c-2.88-1.37-5.88-2.41-8.97-3.06-3.08-.67-6.17-.94-9.21-.83h-.183l-.06.01-.13.01c-3.04.13-6.09.63-9.11 1.53-3.02.89-5.91 2.15-8.66 3.74l-.12.07-.05.03-.05.03-.12.07zm4.33.793c1.41-.692 2.85-1.297 4.33-1.81 1.42 3.424 3.33 5.478 5.11 5.085 1.79-.393 3.01-3.138 3.41-6.963 1.57-.16 3.13-.2 4.68-.15 1.51.06 3.03.22 4.55.48.09 1.15.26 2.21.5 3.15.04.14.07.27.11.4l.04.14c.02.05.04.11.05.16.57 1.8 1.44 3.02 2.54 3.34 1.1.32 2.27-.3 3.36-1.61.24-.29.48-.61.71-.97.23-.36.47-.76.69-1.19.16-.31.32-.63.47-.96 1.51.63 2.96 1.36 4.38 2.18 1.39.8 2.75 1.7 4.09 2.69-.85 3.69-.61 6.86.88 8.22 1.49 1.35 3.87.56 6.25-1.75 1.21 1.32 2.34 2.72 3.42 4.17 1.04 1.42 2.05 2.92 2.99 4.49-1.89 2.97-2.6 6.01-1.62 7.99.98 1.98 3.43 2.44 6.32 1.49.73 1.81 1.38 3.66 1.95 5.52.55 1.83 1.04 3.7 1.45 5.62-2.63 1.79-4.19 4.23-3.87 6.54.33 2.31 2.46 3.93 5.43 4.49.14 2.03.2 4.04.17 6.04-.01.91-.04 1.83-.09 2.76-.05 1.02-.12 2.06-.22 3.09v.03c-2.21.25-3.98 1.13-4.89 2.5-.32.47-.53 1-.63 1.59-.16.99.03 2.03.5 3.05.19.39.41.77.67 1.15.2.29.43.58.67.86.4.47.86.92 1.37 1.34.16.14.33.27.5.41-.47 1.93-1.02 3.81-1.63 5.63-.6 1.78-1.28 3.53-2.03 5.25-2.86-1.16-5.32-.88-6.35 1.03-1.03 1.91-.39 5 1.43 8.1-1.01 1.54-2.07 3-3.18 4.37-1.09 1.34-2.24 2.61-3.44 3.82-2.32-2.48-4.68-3.44-6.2-2.19-1.52 1.25-1.84 4.41-1.07 8.15-1.39.92-2.81 1.73-4.25 2.44-1.4.69-2.85 1.3-4.32 1.81-1.41-3.42-3.32-5.48-5.1-5.08-1.78.39-3.01 3.14-3.41 6.96-1.56.15-3.12.2-4.67.14-1.15-.05-2.31-.15-3.48-.31-.35-.05-.71-.11-1.07-.17-.3-3.85-1.46-6.68-3.23-7.2-.36-.11-.72-.11-1.09-.03l-.09.02-.08.02c-.09.03-.18.06-.26.1-.34.14-.69.36-1.02.65l-.09.07-.05.05c-.13.12-.25.24-.37.37-.78.83-1.52 2.01-2.18 3.46-1.49-.64-2.96-1.37-4.37-2.18-1.39-.8-2.75-1.69-4.09-2.68.86-3.69.62-6.87-.87-8.23-1.49-1.36-3.87-.56-6.24 1.75-1.2-1.33-2.35-2.72-3.42-4.17-1.05-1.42-2.05-2.92-3-4.49 1.89-2.97 2.61-6.01 1.62-8-.98-1.98-3.42-2.43-6.31-1.49-.73-1.81-1.37-3.65-1.94-5.52-.55-1.82-1.04-3.7-1.45-5.61 2.63-1.79 4.2-4.23 3.87-6.54-.32-2.31-2.46-3.94-5.42-4.49-.14-2.03-.19-4.05-.17-6.04.01-.85.04-1.7.08-2.55l.02-.39.02-.22c.05-.91.12-1.82.2-2.73 2.98-.35 5.15-1.82 5.53-4.1.26-1.58-.37-3.28-1.63-4.83-.57-.71-1.27-1.37-2.07-1.99l.07-.31.19-.74.21-.77.17-.61.33-1.12c.21-.71.43-1.4.67-2.09.6-1.78 1.28-3.53 2.03-5.25 2.86 1.16 5.32.88 6.35-1.03 1.03-1.91.39-5-1.43-8.1 1.01-1.54 2.08-3 3.18-4.38 1.09-1.34 2.24-2.61 3.44-3.82 2.32 2.48 4.68 3.44 6.2 2.2 1.52-1.24 1.84-4.4 1.07-8.15 1.4-.92 2.81-1.73 4.25-2.44zm10.06 8.78c-2.27.51-4.52 1.306-6.71 2.397-2.2 1.087-4.28 2.44-6.22 4.02l-.08.067-.04.04-.03.03-.08.07c-1.93 1.6-3.76 3.45-5.46 5.55-1.69 2.1-3.21 4.38-4.52 6.81l-.05.1-.02.05-.02.05-.05.11c-1.31 2.45-2.44 5.07-3.38 7.86s-1.65 5.66-2.14 8.57l-.02.12-.01.06-.01.06-.02.12c-.48 2.92-.75 5.92-.78 8.97-.04 3.06.16 6.08.56 9.02l.02.13.01.06.01.06.02.13c.42 2.95 1.07 5.86 1.94 8.72.87 2.86 1.94 5.56 3.19 8.1l.06.1.02.05.03.05.06.11c1.26 2.53 2.72 4.92 4.36 7.13 1.65 2.23 3.43 4.21 5.33 5.95l.08.07.04.04.04.03.08.07c.45.41.91.81 1.38 1.19 1.5 1.24 3.09 2.34 4.74 3.29 2.17 1.25 4.4 2.21 6.65 2.88l.1.03.04.02.04.02.1.03c2.26.66 4.58 1.04 6.94 1.12l.13.01h.22l.45.01c.64.01 1.28-.01 1.91-.05 1.44-.08 2.86-.28 4.26-.58l.1-.02.04-.01.04-.01.1-.02c2.27-.51 4.51-1.31 6.71-2.4 2.19-1.09 4.27-2.44 6.22-4.02l.08-.07.04-.03.04-.03.08-.07c1.94-1.6 3.77-3.45 5.46-5.55 1.7-2.09 3.21-4.38 4.53-6.81l.06-.1.02-.05.03-.04.06-.1c1.31-2.45 2.44-5.07 3.38-7.86s1.65-5.66 2.14-8.57l.02-.12.01-.06.01-.06.02-.12c.48-2.91.74-5.91.78-8.97.04-3.05-.15-6.07-.56-9.02l-.02-.12-.01-.06-.01-.06-.02-.12c-.42-2.94-1.07-5.86-1.94-8.71-.87-2.85-1.94-5.56-3.19-8.09l-.05-.11-.02-.05-.02-.05-.05-.11c-1.26-2.52-2.71-4.91-4.36-7.13-1.64-2.22-3.43-4.2-5.32-5.94l-.08-.07-.03-.03-.04-.04-.08-.07c-1.9-1.72-3.95-3.22-6.12-4.46-2.16-1.25-4.39-2.21-6.65-2.88l-.09-.03-.05-.01-.04-.02-.09-.03c-2.26-.66-4.58-1.04-6.94-1.12-2.36-.09-4.69.12-6.96.61l-.1.02-.05.01-.04.01-.1.02zm-2.94 3.788c1.09-.4 2.19-.736 3.33-.998.88 2.674 2.2 4.367 3.55 4.218 1.35-.15 2.42-2.1 2.91-4.923 1.18.014 2.35.106 3.5.273 1.12.166 2.25.41 3.37.73.01.867.08 1.674.21 2.393.02.107.04.21.07.312l.02.106.03.127c.33 1.392.91 2.373 1.72 2.706.8.33 1.71-.04 2.59-.93.2-.2.39-.42.58-.66.2-.25.39-.53.58-.83.13-.22.27-.44.4-.68 1.09.6 2.14 1.26 3.16 1.99.99.71 1.97 1.49 2.91 2.34-.83 2.69-.82 5.08.23 6.21 1.04 1.13 2.86.74 4.76-.8.83 1.09 1.61 2.22 2.34 3.39.71 1.15 1.38 2.35 2 3.6-1.56 2.06-2.25 4.27-1.63 5.84.63 1.56 2.44 2.1 4.64 1.63.45 1.41.84 2.84 1.17 4.29.32 1.4.58 2.84.79 4.31-2.06 1.12-3.36 2.82-3.23 4.57.13 1.75 1.64 3.14 3.82 3.8 0 1.52-.07 3.03-.19 4.52-.05.68-.13 1.37-.21 2.05-.09.76-.2 1.53-.33 2.29v.02c-1.66.01-3.03.52-3.79 1.47-.26.33-.45.71-.55 1.14-.17.72-.08 1.51.22 2.32.12.3.26.61.44.92.14.23.29.47.46.7.28.37.59.75.95 1.11.12.11.23.23.36.34-.45 1.41-.96 2.77-1.51 4.08-.54 1.28-1.14 2.53-1.79 3.76-2.08-1.1-3.93-1.1-4.79.25-.87 1.35-.55 3.7.64 6.17-.83 1.07-1.7 2.07-2.6 3.01-.88.91-1.8 1.77-2.77 2.57-1.6-2.04-3.31-2.95-4.51-2.14-1.2.8-1.6 3.14-1.22 6-1.09.57-2.19 1.06-3.3 1.48-1.08.4-2.19.73-3.32 1-.88-2.68-2.2-4.37-3.55-4.22-1.35.15-2.41 2.09-2.91 4.92-1.18-.02-2.34-.11-3.49-.28-.86-.14-1.72-.31-2.59-.52-.26-.07-.53-.14-.79-.22-.03-2.9-.75-5.11-2.04-5.65-.27-.11-.54-.14-.82-.11l-.07.01-.06.01-.2.05c-.26.08-.53.22-.8.4l-.06.05-.04.03-.29.24c-.62.56-1.24 1.38-1.8 2.41-1.09-.6-2.14-1.26-3.16-1.99-.99-.71-1.96-1.5-2.91-2.35.84-2.69.82-5.08-.22-6.21-1.05-1.14-2.87-.74-4.76.79-.83-1.09-1.61-2.23-2.34-3.4-.71-1.15-1.38-2.35-2-3.6 1.56-2.06 2.26-4.28 1.62-5.84-.63-1.56-2.43-2.1-4.64-1.63-.45-1.42-.83-2.85-1.16-4.29-.31-1.41-.58-2.85-.79-4.32 2.06-1.13 3.36-2.82 3.23-4.58-.12-1.75-1.63-3.14-3.82-3.8 0-1.53.07-3.04.19-4.53.06-.63.12-1.27.2-1.9l.03-.29.02-.16c.09-.67.18-1.34.29-2.02 2.24-.01 3.94-.93 4.35-2.61.28-1.15-.1-2.48-.97-3.74-.38-.57-.87-1.12-1.44-1.65l.07-.23.18-.54.2-.56c.05-.15.1-.3.16-.44l.3-.81c.2-.51.4-1.01.61-1.51.54-1.28 1.14-2.54 1.79-3.76 2.07 1.1 3.92 1.09 4.79-.25.87-1.34.55-3.7-.65-6.17.84-1.07 1.7-2.08 2.61-3.01.88-.91 1.81-1.77 2.77-2.57 1.6 2.04 3.32 2.95 4.52 2.14 1.2-.81 1.61-3.14 1.23-6.01 1.09-.57 2.19-1.06 3.3-1.48zm7.06 7.38c-1.72.2-3.44.61-5.14 1.248-1.69.63-3.32 1.47-4.85 2.493l-.06.042-.03.02-.03.02-.06.044c-1.53 1.034-2.99 2.27-4.37 3.7-1.38 1.428-2.62 3.01-3.74 4.722l-.04.07-.02.032-.02.035-.04.07c-1.1 1.72-2.09 3.59-2.93 5.6-.85 2.01-1.53 4.09-2.05 6.23l-.02.09-.01.05-.01.05-.02.09c-.51 2.14-.86 4.36-1.05 6.64-.19 2.28-.2 4.55-.05 6.79l.01.1.01.09.01.09c.16 2.24.49 4.47 1 6.67.5 2.21 1.16 4.32 1.96 6.31l.04.09.03.08.03.09c.81 1.99 1.77 3.9 2.88 5.68 1.11 1.8 2.34 3.43 3.67 4.88l.06.06.05.06.06.06c.32.34.64.68.97 1 1.06 1.04 2.19 1.99 3.38 2.84 1.55 1.11 3.17 2.01 4.82 2.69l.07.04.07.02.06.03c1.66.68 3.37 1.15 5.13 1.41l.1.02.17.02.33.04c.47.06.95.1 1.42.12 1.07.05 2.14.02 3.21-.09l.07-.01h.06l.08-.01c1.72-.19 3.44-.61 5.14-1.24 1.69-.63 3.32-1.47 4.85-2.49l.07-.04.03-.02.03-.02.07-.04c1.53-1.04 2.99-2.27 4.37-3.7 1.38-1.43 2.63-3.01 3.74-4.72l.05-.07.02-.03.02-.03.05-.07c1.1-1.71 2.09-3.58 2.93-5.59.85-2.01 1.53-4.09 2.05-6.23l.02-.09.01-.04.01-.04.02-.09c.51-2.13.87-4.36 1.05-6.64.19-2.28.2-4.55.05-6.78l-.01-.09v-.08l-.01-.09c-.16-2.23-.49-4.46-.99-6.67-.5-2.2-1.16-4.31-1.96-6.3l-.03-.08-.02-.04-.01-.04-.03-.08c-.8-1.99-1.77-3.9-2.88-5.69-1.11-1.79-2.34-3.42-3.67-4.87l-.05-.06-.03-.03-.03-.03-.05-.06c-1.33-1.44-2.78-2.73-4.34-3.83-1.55-1.11-3.17-2.01-4.82-2.7l-.07-.03-.03-.01-.03-.01-.07-.03c-1.65-.67-3.37-1.14-5.13-1.4-1.76-.26-3.51-.29-5.23-.11l-.08.01-.04.01h-.03l-.07.01z" fill="#A4CC9A"/></g></g></svg>